<?xml version="1.0" standalone="no"?><!DOCTYPE svg PUBLIC "-//W3C//DTD SVG 1.1//EN" "http://www.w3.org/Graphics/SVG/1.1/DTD/svg11.dtd"><svg t="1701143525610" class="icon" viewBox="0 0 1024 1024" version="1.1" xmlns="http://www.w3.org/2000/svg" p-id="6737" xmlns:xlink="http://www.w3.org/1999/xlink" width="200" height="200"><path d="M181.01 224.11l6.03 20.176s-10.634 15.67-24.12 38.334c-94.133 158.203 86.856 218.144 128.632 193.687 38.546-22.565 40.941 8.723 62.306-6.052 12.516-8.656-28.966 29.623 40.197 96.844 116.88 113.598 214.29 8.096 235.156-22.194 16.219-23.544 24.117-18.158 24.117-18.158-0.142 0.174 124.127 173.305 134.132 190.707 13.032 22.668-30.967 23.84-27.608 73.597 1.487 22.029 32.364 89.2 88.434 48.422 55.199-40.145 49.163-114.164 38.188-135.179-7.495-14.35-156.73-252.556-182.899-290.532-154.3-146.436-243.194-100.878-243.194-100.878-11.844-19.154-30.147-18.158-30.147-18.158-6.821-94.354-215.057-123.073-215.057-123.073L181.01 224.11z" fill="#FCB596" p-id="6738"></path><path d="M377.104 350.7c-6.087 9.854-84.854 114.105-165.201 70.994-81.368-43.658 6.398-163.81 14.292-184.106-2.247-4.655-2.437-8.32-2.437-8.32l8.673-16.181c180.95 36.881 157.201 114.24 157.201 114.24s-6.44 13.52-12.528 23.374z m275.223 107.18c-9.772-3.819-21.006-1.605-38.696 20.777-17.69 22.382-76.43 104.564-150.112 78.66-73.682-25.905-66.377-86.243-50.826-133.358 35.09-106.317 98.504-83.694 142.397-64.196 42.044 18.678 107.846 78.228 107.846 78.228l-10.609 19.89z" fill="#592E2E" p-id="6739"></path><path d="M408.93 347.137c7.33 12.757 7.234 19.516 7.234 19.516l-43.262 12.168c29.164-41.547 25.723-56.617 25.723-56.617 10.105-2.834 22.578-5.74 27.548 5.497-16.138-5.197-21.942 11.256-17.243 19.436m198.046 159.807c-15.522 30.482-96.428 106.098-186.722 24.815 0 0 42.705 8.763 82.297-8.67 51.765-22.794 103.72-73.24 103.72-73.24l46.907 7.032 3.84 13.673s-34.52 5.906-50.042 36.39" fill="#DC5F3F" p-id="6740"></path><path d="M324.134 400.815c-53.21 41.936-120.2 2.964-120.2 2.964l-2.685-25.73c14.232 42.765 61.057 28.893 75.288 15.786 14.23-13.106 8.41-48.654 28.452-62.225 20.043-13.568 41.226-13.971 30.935-51.113-10.291-37.14-69.171-54.352-69.171-54.352 14.82-8.228 83.373 27.86 83.373 27.86l25.553 23.412c38.054 37.182-2.736 84.932-51.545 123.398m332.21 49.24l-7.425 0.678c-9.44-0.534-7.67-6.807-62.58 54.881-81.529 91.598-150.454 14.556-150.454 14.556l-3.793-14.788c52.283 53.033 31.288-54.438 111.6-46.352 62.845 6.326 60.732-98.612-31.16-111.167-10.436-1.426-25.337 3.356-25.324 3.336 0 0-4.298-5.68 4.664-7.072 69.762-10.834 171.064 89.194 171.064 89.194-3.346 1.435-6.593 16.733-6.593 16.733" fill="#FFFFFF" p-id="6741"></path><path d="M246.704 224.925l-8.063 14.95s0.147 3.37 2.166 7.633c-7.381 18.725-88.625 129.92-14.515 169.422 73.18 39.008 146.063-57.49 151.71-66.601 5.647-9.11 11.646-21.595 11.646-21.595s22.333-71.33-142.944-103.81m130.4 125.777c-6.088 9.853-84.854 114.104-165.201 70.993-81.368-43.658 6.398-163.81 14.292-184.105-2.247-4.656-2.437-8.32-2.437-8.32l8.673-16.182c180.95 36.882 157.201 114.24 157.201 114.24s-6.44 13.521-12.528 23.374m181.872 13.201c-39.902-17.389-97.549-37.567-129.451 57.258-14.138 42.022-20.782 95.839 46.202 118.94 66.982 23.103 120.384-50.196 136.467-70.158 16.081-19.963 26.294-21.938 35.177-18.531l9.646-17.74s-59.82-53.111-98.04-69.769m54.654 114.756c-17.69 22.381-76.43 104.563-150.112 78.66-73.682-25.905-66.377-86.245-50.826-133.36 35.09-106.317 98.504-83.693 142.397-64.194 42.044 18.677 107.846 78.227 107.846 78.227l-10.609 19.89c-9.772-3.82-21.006-1.607-38.696 20.777m228.296 233.41L671.353 438.985C523.729 294.957 441.829 348.57 441.829 348.57c-13.54-22.968-45.753-22.672-45.753-22.672 8.285-90.214-170.225-118.731-170.225-118.731l-14.424 22.48 3.126 15.723s-5.908 11.579-24.294 45.116c-80.266 146.414 59.696 164.59 88.9 151.902a40.774 40.774 0 0 1 8.313-2.599l-0.177-0.078c17.46-6.069 55.36-25.841 71.711-48.33 24.32-33.446 38.705-34.68 44.651-32.963 3.69-0.098 7.146 2.149 10.237 7.584 14.067 24.739-61.812 109.625-9.216 167.81 104.618 115.736 189.064-2.087 209.893-32.433 16.191-23.59 38.167-23.519 38.167-23.519s173.206 227.707 173.279 246.533c0.1 26.22-42.225 48.371-32.526 73.317 7.729 19.877 19.006 27.19 35.31 7.62 43.748-52.506 13.126-93.263 13.126-93.263m-0.704 111.6c-30.95 26.903-54.052-1.864-60.39-22.29-12.144-39.147 31.256-53.247 26.17-79.03-3.844-19.482-146.95-212.77-146.95-212.77s-9.923-25.674-26.167-2.026C612.988 537.975 521.47 668.25 404.403 554.16c-78.939-76.932 8.121-165.075-2.013-176.295-1.315-1.458-29.287 59.395-50.325 74.976-20.93 15.502-35.754-13.043-60.39 4.053-27.891 19.355-195.954-14.632-116.753-162.112 22.373-41.662 28.182-50.658 28.182-50.658l-4.027-22.291 22.144-32.422s186.416 24.793 193.247 119.556c0 0 24.371 1.028 36.234 20.264 0 0 84.742-47.73 235.187 94.036-0.196-1.901 175.338 267.828 181.503 282.873 6.035 14.721 25.504 72.615-26.169 117.53" fill="#262121" p-id="6742"></path></svg>